# ProBuilder 5.1.1
# https://unity3d.com/unity/features/worldbuilding/probuilder
# 11/9/2024 7:45:20 PM

mtllib ./examplemap.mtl
o examplemap

g Plane
v 0 0 0
v 0 0 0.8333334
v -0.8333334 0 0
v -0.8333334 0 0.8333334
v 0 0 1.666667
v -0.8333334 0 1.666667
v 0 0 2.5
v -0.8333334 0 2.5
v 0 0 3.333333
v -0.8333334 0 3.333333
v 0 0 4.166667
v -0.8333334 0 4.166667
v 0 0 5
v -0.8333334 0 5
v -1.666667 0 0
v -1.666667 0 0.8333334
v -1.666667 0 1.666667
v -1.666667 0 2.5
v -1.666667 0 3.333333
v -1.666667 0 4.166667
v -1.666667 0 5
v -2.5 0 0
v -2.5 0 0.8333334
v -2.5 0 1.666667
v -2.5 0 2.5
v -2.5 0 3.333333
v -2.5 0 4.166667
v -2.5 0 5
v -3.333333 0 0
v -3.333333 0 0.8333334
v -3.333333 0 1.666667
v -3.333333 0 2.5
v -3.333333 0 3.333333
v -3.333333 0 4.166667
v -3.333333 0 5
v -4.166667 0 0
v -4.166667 0 0.8333334
v -4.166667 0 1.666667
v -4.166667 0 2.5
v -4.166667 0 3.333333
v -4.166667 0 4.166667
v -4.166667 0 5
v -5 0 0
v -5 0 0.8333334
v -5 0 1.666667
v -5 0 2.5
v -5 0 3.333333
v -5 0 4.166667
v -5 0 5
v -5 2.273025 5
v -5 2.273025 4.166667
v -5 2.273025 3.333333
v -5 2.273025 2.5
v -5 2.273025 1.666667
v -5 2.273025 0.8333334
v -5 2.273025 -7.319431E-08
v -4.166667 2.273025 -7.319431E-08
v -3.333333 2.273025 -7.319431E-08
v -2.5 2.273025 -7.319431E-08
v -1.666667 2.273025 -7.319431E-08
v -0.8333334 2.273025 -7.319431E-08
v 5.034508E-08 2.273025 -7.319431E-08
v 5.034508E-08 2.273025 0.8333334
v 5.034508E-08 2.273025 1.666667
v 5.034508E-08 2.273025 2.5
v 5.034508E-08 2.273025 3.333333
v 5.034508E-08 2.273025 4.166667
v 5.034508E-08 2.273025 5
v -0.8333334 2.273025 5
v -1.666667 2.273025 5
v -2.5 2.273025 5
v -3.333333 2.273025 5
v -4.166667 2.273025 5

vt 0 0
vt 0 0.8333334
vt 0.8333334 0
vt 0.8333334 0.8333334
vt 0 1.666667
vt 0.8333334 1.666667
vt 0 2.5
vt 0.8333334 2.5
vt 0 3.333333
vt 0.8333334 3.333333
vt 0 4.166667
vt 0.8333334 4.166667
vt 0 5
vt 0.8333334 5
vt 1.666667 0
vt 1.666667 0.8333334
vt 1.666667 1.666667
vt 1.666667 2.5
vt 1.666667 3.333333
vt 1.666667 4.166667
vt 1.666667 5
vt 2.5 0
vt 2.5 0.8333334
vt 2.5 1.666667
vt 2.5 2.5
vt 2.5 3.333333
vt 2.5 4.166667
vt 2.5 5
vt 3.333333 0
vt 3.333333 0.8333334
vt 3.333333 1.666667
vt 3.333333 2.5
vt 3.333333 3.333333
vt 3.333333 4.166667
vt 3.333333 5
vt 4.166667 0
vt 4.166667 0.8333334
vt 4.166667 1.666667
vt 4.166667 2.5
vt 4.166667 3.333333
vt 4.166667 4.166667
vt 4.166667 5
vt 5 0
vt 5 0.8333334
vt 5 1.666667
vt 5 2.5
vt 5 3.333333
vt 5 4.166667
vt 5 5
vt -5 -1.048904E-06
vt -4.166667 -1.048904E-06
vt -5 2.273024
vt -4.166667 2.273024
vt -3.333333 -1.048904E-06
vt -3.333333 2.273024
vt -2.5 -1.048904E-06
vt -2.5 2.273024
vt -1.666667 -1.048904E-06
vt -1.666667 2.273024
vt -0.8333334 -1.048904E-06
vt -0.8333334 2.273024
vt 7.319431E-08 2.273024
vt 0.8333334 2.273025
vt 1.666667 2.273025
vt 2.5 2.273025
vt 3.333333 2.273025
vt 4.166667 2.273025
vt 5 2.273025

vn 0 1 0
vn 1 -2.097809E-07 0
vn 0 3.220128E-08 1
vn -1 2.214893E-08 0
vn 0 -2.097809E-07 -1

usemtl Lit
f 3/3/1 4/4/1 2/2/1 1/1/1
f 4/4/1 6/6/1 5/5/1 2/2/1
f 6/6/1 8/8/1 7/7/1 5/5/1
f 8/8/1 10/10/1 9/9/1 7/7/1
f 10/10/1 12/12/1 11/11/1 9/9/1
f 12/12/1 14/14/1 13/13/1 11/11/1
f 15/15/1 16/16/1 4/4/1 3/3/1
f 16/16/1 17/17/1 6/6/1 4/4/1
f 17/17/1 18/18/1 8/8/1 6/6/1
f 18/18/1 19/19/1 10/10/1 8/8/1
f 19/19/1 20/20/1 12/12/1 10/10/1
f 20/20/1 21/21/1 14/14/1 12/12/1
f 22/22/1 23/23/1 16/16/1 15/15/1
f 23/23/1 24/24/1 17/17/1 16/16/1
f 24/24/1 25/25/1 18/18/1 17/17/1
f 25/25/1 26/26/1 19/19/1 18/18/1
f 26/26/1 27/27/1 20/20/1 19/19/1
f 27/27/1 28/28/1 21/21/1 20/20/1
f 29/29/1 30/30/1 23/23/1 22/22/1
f 30/30/1 31/31/1 24/24/1 23/23/1
f 31/31/1 32/32/1 25/25/1 24/24/1
f 32/32/1 33/33/1 26/26/1 25/25/1
f 33/33/1 34/34/1 27/27/1 26/26/1
f 34/34/1 35/35/1 28/28/1 27/27/1
f 36/36/1 37/37/1 30/30/1 29/29/1
f 37/37/1 38/38/1 31/31/1 30/30/1
f 38/38/1 39/39/1 32/32/1 31/31/1
f 39/39/1 40/40/1 33/33/1 32/32/1
f 40/40/1 41/41/1 34/34/1 33/33/1
f 41/41/1 42/42/1 35/35/1 34/34/1
f 43/43/1 44/44/1 37/37/1 36/36/1
f 44/44/1 45/45/1 38/38/1 37/37/1
f 45/45/1 46/46/1 39/39/1 38/38/1
f 46/46/1 47/47/1 40/40/1 39/39/1
f 47/47/1 48/48/1 41/41/1 40/40/1
f 48/48/1 49/49/1 42/42/1 41/41/1
f 51/53/2 50/52/2 49/50/2 48/51/2
f 52/55/2 51/53/2 48/51/2 47/54/2
f 53/57/2 52/55/2 47/54/2 46/56/2
f 54/59/2 53/57/2 46/56/2 45/58/2
f 55/61/2 54/59/2 45/58/2 44/60/2
f 56/62/2 55/61/2 44/60/2 43/1/2
f 57/53/3 56/52/3 43/50/3 36/51/3
f 58/55/3 57/53/3 36/51/3 29/54/3
f 59/57/3 58/55/3 29/54/3 22/56/3
f 60/59/3 59/57/3 22/56/3 15/58/3
f 61/61/3 60/59/3 15/58/3 3/60/3
f 62/62/3 61/61/3 3/60/3 1/1/3
f 63/63/4 62/62/4 1/1/4 2/3/4
f 64/64/4 63/63/4 2/3/4 5/15/4
f 65/65/4 64/64/4 5/15/4 7/22/4
f 66/66/4 65/65/4 7/22/4 9/29/4
f 67/67/4 66/66/4 9/29/4 11/36/4
f 68/68/4 67/67/4 11/36/4 13/43/4
f 69/63/5 68/62/5 13/1/5 14/3/5
f 70/64/5 69/63/5 14/3/5 21/15/5
f 71/65/5 70/64/5 21/15/5 28/22/5
f 72/66/5 71/65/5 28/22/5 35/29/5
f 73/67/5 72/66/5 35/29/5 42/36/5
f 50/68/5 73/67/5 42/36/5 49/43/5

